<svg width="131" height="38" viewBox="0 0 131 38" fill="none" xmlns="http://www.w3.org/2000/svg">
<path d="M27.2542 1.66796V0.757009H20.5542V2.95401C18.5442 0.864175 16.1433 0.274737 13.5192 0.167566C8.10334 -0.0467764 3.35751 2.90043 1.68251 7.72312C0.510009 10.9918 0.454177 14.3141 1.57084 17.6364C4.08334 25.0848 13.5192 27.9249 19.9958 23.2093C19.9958 23.2093 20.1075 23.2093 20.1633 23.2093C20.1633 23.9059 20.1633 24.6561 20.1633 25.3528C20.1075 27.9249 18.6 29.9611 16.0875 30.8721C13.9658 31.6758 11.7325 31.5687 9.61084 31.0328C7.88001 30.6041 6.20501 29.9075 4.41834 29.2645C4.41834 31.14 4.41834 33.0691 4.41834 34.9981C4.41834 35.534 4.58584 35.8019 5.14418 35.9627C7.99168 36.9808 10.895 37.3023 13.91 37.2487C20.2192 37.1416 27.4775 33.1762 27.3658 24.1739C27.1983 16.7255 27.2542 9.16993 27.2542 1.66796ZM19.8283 15.5466C19.0467 18.2259 16.8133 19.6727 13.575 19.5119C10.895 19.4048 8.71751 17.5293 8.21501 14.9572C7.88001 13.3496 7.88001 11.742 8.38251 10.1345C9.27584 7.34803 11.8442 5.74046 14.8033 6.11556C17.93 6.49066 19.94 8.5269 20.1075 11.5277C20.1075 12.01 20.1075 12.4386 20.1075 12.8673C20.1633 12.8673 20.0517 14.6892 19.8283 15.5466Z" fill="#121212"/>
<path d="M33.005 29.3181C33.675 29.6396 34.1775 29.8539 34.68 30.0683C37.1925 31.2472 39.8167 31.7294 42.5525 31.1936C45.065 30.7113 46.9075 28.7822 47.1867 26.3173C47.2983 25.2992 47.1867 24.281 47.1867 23.2093C47.075 23.2629 47.0192 23.2629 46.9075 23.3165C41.6033 27.6569 33.3958 25.192 31.7208 18.7082C31.4975 17.7436 31.33 16.7791 31.33 15.761C31.2742 10.9383 31.33 6.06197 31.33 1.23928C31.33 1.07852 31.33 0.864183 31.3858 0.649841C33.7308 0.649841 36.0758 0.649841 38.4767 0.649841C38.4767 0.971354 38.4767 1.23928 38.4767 1.56079C38.4767 5.63329 38.4767 9.70579 38.4767 13.7247C38.4767 14.0998 38.4767 14.4749 38.4767 14.85C38.5883 17.3685 40.0958 18.8689 42.4408 18.9225C45.1208 18.9761 47.075 17.4757 47.1308 14.9572C47.2425 10.6167 47.1867 6.22273 47.1867 1.8823C47.1867 1.5072 47.1867 1.07853 47.1867 0.649841C49.5875 0.649841 51.8767 0.649841 54.2775 0.649841C54.2775 0.864183 54.3333 1.02493 54.3333 1.23928C54.3333 9.16993 54.3333 17.1006 54.3333 25.0312C54.3333 30.6041 50.8717 34.9981 45.2883 36.6057C41.2683 37.731 37.3042 37.3023 33.3958 35.9091C33.1725 35.8555 32.9492 35.534 32.9492 35.3732C33.005 33.4978 33.005 31.5151 33.005 29.3181Z" fill="#121212"/>
<path d="M84.7067 10.831C84.1484 5.25816 79.905 0.381875 73.0934 0.221118C70.19 0.167533 67.4542 0.649801 65.2767 2.73964C65.2767 2.73964 65.165 2.73964 65.0533 2.73964V0.810554H58.4092V36.9808H65.5V23.2629C66.4492 23.7987 67.2308 24.3882 68.1242 24.7097C72.0883 26.2637 78.6209 25.9422 82.3059 21.0659C84.595 17.9579 85.0975 14.4749 84.7067 10.831ZM76.89 16.2968C75.8292 18.7081 73.2609 19.887 70.4134 19.4583C67.845 19.0832 65.9467 17.2613 65.6117 14.7428C65.5 14.0998 65.5 13.4567 65.4442 12.8137C65.3883 12.8137 65.6117 10.7239 65.9467 9.75934C66.7283 7.40158 68.5708 6.27628 71.0834 6.06194C73.5959 5.84759 75.8292 7.02647 76.8342 9.11631C77.9509 11.4741 77.9508 13.939 76.89 16.2968Z" fill="#121212"/>
<path d="M120.272 30.7113C123.343 29.1573 123.455 26.2101 123.511 23.2093C120.44 25.6207 117.09 26.1565 113.461 24.9241C110.167 23.906 108.436 21.441 107.766 18.2795C107.263 12.4923 107.654 6.65143 107.598 0.864197H114.633C114.633 5.31179 114.633 9.75939 114.633 14.207C114.522 17.047 115.973 19.3512 119.156 19.1369C122.003 19.1904 123.567 16.6183 123.399 13.9926C123.399 9.59863 123.399 5.25821 123.399 0.864197H130.546C130.546 8.79485 130.546 16.7255 130.546 24.6562C130.546 30.0147 128.145 33.98 123.008 36.2842C121.724 36.8201 120.105 37.5167 118.597 37.731C115.917 38.0525 113.74 38.0525 112.009 37.5703C109.217 36.8737 107.542 35.4804 106.426 34.3015C104.695 32.3725 103.746 32.3725 102.015 34.3015C98.4416 38.7491 92.0766 38.7491 88.5033 34.3015C86.7725 32.3725 85.8792 32.3725 84.0925 34.3015C80.5192 38.6956 74.1542 38.7491 70.5808 34.3015C69.52 33.1762 69.185 32.9083 68.4033 32.9083V27.0139C74.0983 27.0139 74.88 31.5687 77.3367 31.7294C79.7375 31.6223 80.6867 26.9603 86.27 27.0139C93.1933 26.7996 93.5283 34.9446 97.4366 30.3362C100.396 26.5317 106.537 25.6743 110.222 29.586C112.735 31.9974 116.755 32.1581 120.272 30.7113Z" fill="#121212"/>
<path d="M110.725 29.9611C110.613 29.9075 110.558 29.8004 110.502 29.7468C110.613 29.8539 110.669 29.9075 110.725 29.9611Z" fill="#121212"/>
<path d="M86.4933 17.7436C86.8842 17.9579 87.1633 18.1187 87.4425 18.2795C89.7875 19.5655 92.3 20.4765 95.0358 20.3157C95.7616 20.2621 96.5433 20.0478 97.1575 19.7263C98.6092 18.8689 98.5533 16.8862 96.99 16.1896C95.5383 15.5466 93.975 15.1715 92.4675 14.5821C91.2392 14.0998 90.0108 13.5639 88.8941 12.9209C87.7216 12.2779 87.1075 11.2062 86.7725 9.9737C85.6558 5.36535 88.28 1.45361 93.1375 0.542652C96.4317 -0.0467884 99.67 0.274731 102.797 1.45361C103.299 1.66795 103.522 1.88229 103.522 2.47173C103.467 4.02571 103.522 5.5797 103.522 7.08009C101.959 6.54423 100.507 5.95479 98.9442 5.63327C97.8833 5.41893 96.655 5.41894 95.5383 5.57969C94.4217 5.68687 93.8633 6.38347 93.7517 7.29443C93.64 8.36614 93.975 8.95558 95.0917 9.43785C96.4317 9.9737 97.8275 10.2952 99.1675 10.8847C100.396 11.3669 101.624 11.9028 102.741 12.5994C105.253 14.1534 105.532 16.5647 105.086 19.1368C104.527 22.2984 102.238 24.0131 99.2792 24.9241C95.0358 26.2101 90.9042 25.6207 86.8842 24.1203C86.7167 24.0667 86.4933 23.7988 86.4933 23.638C86.4375 21.6018 86.4933 19.7263 86.4933 17.7436Z" fill="#121212"/>
</svg>
